{"asset":{"version":"2.0","generator":"Blockbench 5.0.1 glTF exporter"},"scenes":[{"nodes":[16],"name":"blockbench_export"}],"scene":0,"nodes":[{"rotation":[0.3826834323650898,0,0,0.9238795325112867],"translation":[-0.09999999999999998,-0.06875000000000009,0.006249999999999999],"name":"sphere"},{"rotation":[0,-0.7223639620597555,0,0.6915130557822694],"translation":[-0.1275937211057916,-0.0853479266481357,-0.004687499999999997],"name":"cuff2","children":[0]},{"rotation":[0,0.25881904510252074,0,0.9659258262890683],"translation":[-0.06875000000000002,0.15625000000000003,0],"name":"arm_l","children":[1]},{"translation":[0.09999999999999964,-0.06875000000000003,0],"name":"hand"},{"rotation":[0.27109929538335487,0.5087851877095262,-0.17270929881460112,0.7986327709986607],"translation":[0.12500000000000025,-0.07499999999999998,-0.03125],"name":"cuff","children":[3]},{"rotation":[0,-0.3214394653031616,0,0.9469301294951057],"translation":[0.06615627889420833,0.15840207335186432,0.0015625000000000014],"name":"arm_r","children":[4]},{"rotation":[0.043619387365336,0,0,0.9990482215818578],"translation":[-0.03384372110579173,0.17715207335186425,-0.004687499999999997],"name":"head"},{"rotation":[-0.13052619222005157,0,0,0.9914448613738104],"translation":[0.03384372110579173,-0.15840207335186432,-0.020312500000000004],"name":"torso","children":[2,5,6]},{"translation":[0,-0.09999999999999994,-0.012499999999999997],"name":"ski"},{"rotation":[-0.08641011328638343,-0.011376107230962192,0.1300295006517194,0.9876721143508955],"translation":[0,-0.09375000000000004,0],"name":"lower","children":[8]},{"rotation":[0.06068568766384033,-0.006646163713436474,-0.10866381618518427,0.9922022227715142],"translation":[-0.012499999999999997,-0.018750000000000017,0.03125],"name":"legl","children":[9]},{"translation":[0.003124999999999989,-0.08749999999999993,-0.01875],"name":"ski2"},{"rotation":[-0.06068568766384033,0.0066461637134364844,-0.10866381618518427,0.9922022227715142],"translation":[0,-0.10000000000000005,0],"name":"lower2","children":[11]},{"rotation":[0.06052626081620975,0.007968433406080144,0.130282734560335,0.989595616853744],"translation":[0.078125,-0.018750000000000017,0.03125],"name":"legr","children":[12]},{"translation":[0,-0.16874999999999998,-0.043750000000000004],"name":"skirt","children":[10,13]},{"name":"body","children":[7,14]},{"translation":[0.0625,0.3125,0],"name":"body","mesh":0,"children":[15],"skin":0}],"bufferViews":[{"buffer":0,"byteOffset":0,"byteLength":19800,"target":34962,"byteStride":12},{"buffer":0,"byteOffset":19800,"byteLength":19800,"target":34962,"byteStride":12},{"buffer":0,"byteOffset":39600,"byteLength":13200,"target":34962,"byteStride":8},{"buffer":0,"byteOffset":52800,"byteLength":13200,"target":34962,"byteStride":8},{"buffer":0,"byteOffset":66000,"byteLength":26400,"target":34962,"byteStride":16},{"buffer":0,"byteOffset":92400,"byteLength":4128,"target":34963},{"buffer":0,"byteOffset":96528,"byteLength":1024}],"buffers":[{"byteLength":97552,"uri":"data:application/octet-stream;base64,"}],"accessors":[{"bufferView":0,"componentType":5126,"count":1650,"max":[0.4170073866844177,0.1114233136177063,0.18189379572868347],"min":[-0.396126925945282,-0.41873258352279663,-0.4370166063308716],"type":"VEC3"},{"bufferView":1,"componentType":5126,"count":1650,"max":[1,1,0.9996479153633118],"min":[-1,-1,-0.9996479153633118],"type":"VEC3"},{"bufferView":2,"componentType":5126,"count":1650,"max":[0.548632800579071,0.548828125],"min":[0,0],"type":"VEC2"},{"bufferView":3,"componentType":5123,"count":1650,"max":[0,15,0,0],"min":[0,1,0,0],"type":"VEC4"},{"bufferView":4,"componentType":5126,"count":1650,"max":[0,1,0,0],"min":[0,1,0,0],"type":"VEC4"},{"bufferView":5,"componentType":5123,"count":2064,"max":[1649],"min":[0],"type":"SCALAR"},{"bufferView":6,"componentType":5126,"count":16,"max":[1,0.2810947597026825,0.5,0,0.258819043636322,1,0.258819043636322,0,0.8567866683006287,0.3162437379360199,1,0,0.16900408267974854,0.3752096891403198,0.10772789269685745,1],"min":[0.4617486000061035,-0.6272113919258118,-0.8870108127593994,0,-0.2164396196603775,0.7675185799598694,-0.5985068678855896,0,-0.4829629063606262,-0.258819043636322,0.4460149109363556,0,-0.2971192002296448,-0.023601053282618523,-0.19975349307060242,1],"type":"MAT4"}],"materials":[{"pbrMetallicRoughness":{"metallicFactor":0,"roughnessFactor":1,"baseColorTexture":{"index":0}},"alphaMode":"MASK","alphaCutoff":0.05,"doubleSided":true}],"textures":[{"sampler":0,"source":0,"name":"ski-game-texture.png"}],"samplers":[{"magFilter":9728,"minFilter":9728,"wrapS":33071,"wrapT":33071}],"images":[{"mimeType":"image/png","uri":"data:image/png;base64,"}],"meshes":[{"primitives":[{"mode":4,"attributes":{"POSITION":0,"NORMAL":1,"TEXCOORD_0":2,"JOINTS_0":3,"WEIGHTS_0":4},"indices":5,"material":0}]}],"skins":[{"inverseBindMatrices":6,"joints":[15,7,2,1,0,5,4,3,6,14,10,9,8,13,12,11],"skeleton":15}]}